<svg width="27" height="27" viewBox="0 0 27 27" fill="none" xmlns="http://www.w3.org/2000/svg">
<path d="M0.000131693 14.048C0.0165044 7.16258 4.34655 1.63466 10.0967 0.875732C13.7642 0.392222 16.9514 1.62609 19.6169 4.50634C20.0207 4.94333 20.1037 5.44398 19.8734 5.9128C19.6627 6.34 19.2359 6.55177 18.7928 6.44895C18.509 6.38285 18.3212 6.15884 18.1226 5.94952C16.2441 3.9555 14.0032 2.95666 11.425 2.97747C6.66494 3.01419 2.6678 7.00835 2.04563 12.3037C1.33942 18.32 5.21977 23.7978 10.6075 24.3608C13.512 24.6644 16.0258 23.6533 18.1499 21.4169C18.3485 21.2076 18.5395 20.991 18.8299 20.9395C19.2665 20.8637 19.6649 21.0669 19.8701 21.4806C20.0895 21.9237 20.0251 22.4256 19.6747 22.8222C18.6869 23.9398 17.5528 24.8235 16.2747 25.476C9.44066 28.9597 1.43111 24.2017 0.167134 15.9086C0.0547075 15.168 -0.00314286 14.425 0.000131693 14.048Z" fill="#FEFEFE"/>
<path d="M23.522 12.6673C22.8841 12.0311 22.3269 11.4823 21.7766 10.9242C21.2501 10.3914 21.216 9.78629 21.6754 9.33847C22.1131 8.91131 22.7124 8.95495 23.2195 9.46477C24.3475 10.5981 25.4732 11.7326 26.5943 12.874C27.1356 13.4251 27.1356 13.9763 26.5921 14.5298C25.4618 15.6803 24.327 16.8274 23.1865 17.9688C22.7021 18.4534 22.1006 18.4809 21.6731 18.0607C21.2251 17.6197 21.249 17.0157 21.7493 16.5048C22.3064 15.9364 22.8738 15.376 23.5151 14.7341C23.2729 14.7341 23.1251 14.7341 22.9773 14.7341C19.3694 14.7341 15.7614 14.7353 12.1523 14.733C11.4746 14.733 11.0425 14.3701 11.0028 13.7845C10.963 13.1943 11.3587 12.7235 11.9431 12.673C12.0841 12.6604 12.2274 12.6673 12.3695 12.6673C15.907 12.6673 19.4444 12.6673 22.9807 12.6673C23.1217 12.6673 23.2604 12.6673 23.522 12.6673Z" fill="#FEFEFE"/>
</svg>
