<svg width="27" height="24" viewBox="0 0 27 24" fill="none" xmlns="http://www.w3.org/2000/svg">
<path d="M26.9999 11.6767C26.9835 18.0669 22.6534 23.1973 16.9033 23.9016C13.2358 24.3504 10.0486 23.2052 7.38312 20.5321C6.97926 20.1266 6.89631 19.6619 7.12662 19.2268C7.33728 18.8303 7.76406 18.6338 8.20722 18.7292C8.49101 18.7906 8.67875 18.9985 8.87741 19.1927C10.7559 21.0434 12.9968 21.9704 15.575 21.9511C20.3351 21.917 24.3322 18.2101 24.9544 13.2956C25.6606 7.71191 21.7802 2.62812 16.3925 2.10554C13.488 1.8238 10.9742 2.76217 8.85012 4.83772C8.65147 5.03198 8.46045 5.23306 8.17011 5.28077C7.7335 5.35121 7.3351 5.16263 7.12989 4.77864C6.9105 4.3674 6.9749 3.90162 7.32527 3.53354C8.3131 2.49633 9.44718 1.67611 10.7253 1.0706C17.5593 -2.16257 25.5689 2.25322 26.8329 9.94991C26.9453 10.6372 27.0031 11.3268 26.9999 11.6767Z" fill="#FEFEFE"/>
<path d="M3.47803 12.9583C4.11593 13.5487 4.6731 14.0581 5.22345 14.576C5.74991 15.0705 5.78402 15.6321 5.32465 16.0477C4.88687 16.4441 4.28763 16.4036 3.7805 15.9305C2.65252 14.8787 1.52681 13.8258 0.405652 12.7665C-0.135596 12.2549 -0.135597 11.7434 0.407926 11.2298C1.53818 10.162 2.67298 9.09734 3.81347 8.03805C4.29787 7.58834 4.89938 7.56276 5.32692 7.9528C5.77493 8.36202 5.75105 8.92257 5.25074 9.39679C4.69357 9.92431 4.12617 10.4444 3.48485 11.0401C3.72705 11.0401 3.87487 11.0401 4.02269 11.0401C7.63064 11.0401 11.2386 11.039 14.8477 11.0411C15.5254 11.0411 15.9575 11.3779 15.9972 11.9214C16.037 12.4692 15.6413 12.9061 15.0569 12.953C14.9159 12.9647 14.7726 12.9583 14.6305 12.9583C11.093 12.9583 7.55559 12.9583 4.01928 12.9583C3.87828 12.9583 3.73956 12.9583 3.47803 12.9583Z" fill="#FEFEFE"/>
</svg>
