<svg width="21" height="26" viewBox="0 0 21 26" fill="none" xmlns="http://www.w3.org/2000/svg">
<path d="M3.78519 25.1804C3.58742 25.08 3.36563 25.0819 3.15555 25.0369C1.49891 24.6832 0.205752 23.2502 0.0498834 21.5591C-0.0856546 20.0867 0.0652854 18.6327 0.378255 17.1929C0.653027 15.9306 1.10893 14.7489 1.95666 13.7521C2.88694 12.6573 4.1074 12.1922 5.51576 12.1645C5.79361 12.1589 6.03881 12.284 6.26923 12.4294C6.62964 12.6561 6.9845 12.8902 7.34614 13.1139C9.44985 14.4126 11.554 14.4126 13.6585 13.1139C13.9505 12.9333 14.2475 12.7578 14.521 12.5526C15.0237 12.178 15.5764 12.1213 16.1752 12.2113C17.8047 12.4473 18.963 13.3369 19.7423 14.7631C20.4416 16.0427 20.7379 17.4344 20.9012 18.865C20.9802 19.5736 21.0119 20.2868 20.996 20.9997C20.9517 23.2841 19.4836 24.8921 17.2151 25.1385C17.177 25.1428 17.1314 25.133 17.111 25.1817L3.78519 25.1804Z" fill="#0d3f7a"/>
<path d="M16.4099 6.06132C16.421 9.40726 13.6745 12.1519 10.3347 12.1316C6.96536 12.1119 4.28295 9.42698 4.27802 6.07056C4.27679 4.46177 4.9147 2.91839 6.05142 1.77994C7.18814 0.641491 8.73055 0.00122722 10.3393 1.76237e-06C11.9481 -0.0012237 13.4915 0.636689 14.63 1.77341C15.7684 2.91013 16.4087 4.45253 16.4099 6.06132Z" fill="#0d3f7a"/>
</svg>
